<svg xmlns="http://www.w3.org/2000/svg" version="1.1" xmlns:xlink="http://www.w3.org/1999/xlink" xmlns:svgjs="http://svgjs.dev/svgjs" width="1000" height="750" viewBox="0 0 1000 750"><rect width="1000" height="750" fill="transparent"></rect><g transform="matrix(0.834,0,0,0.834,82.49454545454546,164.163349447168)"><svg viewBox="0 0 396 200" data-background-color="#ffffff" preserveAspectRatio="xMidYMid meet" height="505" width="1000" xmlns="http://www.w3.org/2000/svg" xmlns:xlink="http://www.w3.org/1999/xlink"><g id="tight-bounds" transform="matrix(1,0,0,1,0.2400000000000091,0.11950070177459793)"><svg viewBox="0 0 395.52 199.7609985964508" height="199.7609985964508" width="395.52"><g><svg viewBox="0 0 395.52 199.7609985964508" height="199.7609985964508" width="395.52"><g transform="matrix(1,0,0,1,0,123.46031114641085)"><svg viewBox="0 0 395.52 76.30068745003996" height="76.30068745003996" width="395.52"><g><svg viewBox="0 0 395.52 76.30068745003996" height="76.30068745003996" width="395.52"><g><svg viewBox="0 0 395.52 76.30068745003996" height="76.30068745003996" width="395.52"><g transform="matrix(1,0,0,1,0,0)"><svg width="395.52" viewBox="2.85 -35.45 187.64000000000001 36.2" height="76.30068745003996" data-palette-color="#883d1a"><path d="M19.55 0.75L19.55 0.75Q15.65 0.75 12.55-0.45 9.45-1.65 7.3-3.98 5.15-6.3 4-9.65 2.85-13 2.85-17.35L2.85-17.35Q2.85-21.7 4.17-25.05 5.5-28.4 7.8-30.73 10.1-33.05 13.2-34.25 16.3-35.45 19.85-35.45L19.85-35.45Q22-35.45 23.75-35.13 25.5-34.8 26.8-34.4 28.1-34 28.95-33.55 29.8-33.1 30.15-32.9L30.15-32.9 28.3-27.75Q27.1-28.5 24.88-29.18 22.65-29.85 20.05-29.85L20.05-29.85Q17.8-29.85 15.85-29.08 13.9-28.3 12.48-26.75 11.05-25.2 10.25-22.85 9.45-20.5 9.45-17.4L9.45-17.4Q9.45-14.65 10.08-12.35 10.7-10.05 12-8.38 13.3-6.7 15.3-5.78 17.3-4.85 20.1-4.85L20.1-4.85Q23.45-4.85 25.55-5.53 27.65-6.2 28.8-6.8L28.8-6.8 30.5-1.65Q29.9-1.25 28.88-0.85 27.85-0.45 26.45-0.08 25.05 0.3 23.3 0.53 21.55 0.75 19.55 0.75ZM42.35-5.45L57.95-5.45 57.95 0 36.05 0 36.05-34.65 42.35-34.65 42.35-5.45ZM65.9-17.35L65.9-17.35Q65.9-14.5 66.59-12.18 67.3-9.85 68.62-8.22 69.95-6.6 71.84-5.7 73.75-4.8 76.15-4.8L76.15-4.8Q78.5-4.8 80.4-5.7 82.3-6.6 83.62-8.22 84.95-9.85 85.65-12.18 86.34-14.5 86.34-17.35L86.34-17.35Q86.34-20.2 85.65-22.53 84.95-24.85 83.62-26.48 82.3-28.1 80.4-29 78.5-29.9 76.15-29.9L76.15-29.9Q73.75-29.9 71.84-29 69.95-28.1 68.62-26.45 67.3-24.8 66.59-22.5 65.9-20.2 65.9-17.35ZM92.95-17.35L92.95-17.35Q92.95-12.9 91.62-9.5 90.3-6.1 88.02-3.83 85.75-1.55 82.7-0.4 79.65 0.75 76.2 0.75L76.2 0.75Q72.75 0.75 69.67-0.4 66.59-1.55 64.32-3.83 62.05-6.1 60.7-9.5 59.35-12.9 59.35-17.35L59.35-17.35Q59.35-21.8 60.7-25.18 62.05-28.55 64.37-30.85 66.7-33.15 69.75-34.3 72.8-35.45 76.2-35.45L76.2-35.45Q79.59-35.45 82.65-34.3 85.7-33.15 87.97-30.85 90.25-28.55 91.59-25.18 92.95-21.8 92.95-17.35ZM95.14-34.65L122.79-34.65 122.79-29.2 112.14-29.2 112.14 0 105.79 0 105.79-29.2 95.14-29.2 95.14-34.65ZM148.94-20.8L148.94-34.65 155.24-34.65 155.24 0 148.94 0 148.94-15.35 133.89-15.35 133.89 0 127.59 0 127.59-34.65 133.89-34.65 133.89-20.8 148.94-20.8ZM175.19-19.3L175.19-19.3Q177.44-23.05 179.59-26.9 181.74-30.75 183.49-34.65L183.49-34.65 190.49-34.65Q187.69-29.35 184.66-24.13 181.64-18.9 178.19-13.6L178.19-13.6 178.19 0 171.89 0 171.89-13.5Q168.44-18.85 165.39-24.1 162.34-29.35 159.54-34.65L159.54-34.65 166.94-34.65Q168.69-30.75 170.79-26.9 172.89-23.05 175.19-19.3Z" opacity="1" transform="matrix(1,0,0,1,0,0)" fill="#883d1a" class="undefined-text-0" data-fill-palette-color="primary" id="text-0"></path></svg></g></svg></g></svg></g></svg></g><g transform="matrix(1,0,0,1,126.93739244178786,0)"><svg viewBox="0 0 141.64521511642425 105.44755005595522" height="105.44755005595522" width="141.64521511642425"><g><svg xmlns="http://www.w3.org/2000/svg" xmlns:xlink="http://www.w3.org/1999/xlink" version="1.1" x="8" y="0" viewBox="1 4.9 47.9 40.2" style="enable-background:new 0 0 50 50;" xml:space="preserve" height="105.44755005595522" width="125.64521511642425" class="icon-icon-0" data-fill-palette-color="accent" id="icon-0"><path d="M37.4 4.9h-6.2c0 3.4-2.8 6.2-6.2 6.2-3.4 0-6.2-2.8-6.2-6.2h-6.2L1 16.6 7.4 23l5.2-5.2v27.3h24.7V17.8l5.2 5.2 6.4-6.4L37.4 4.9z" fill="#2a160c" data-fill-palette-color="accent"></path></svg></g></svg></g><g><rect width="126.93739244178786" height="6.880874736554052" y="97.56667531940116" x="268.5826075582121" fill="#2a160c" data-fill-palette-color="accent"></rect><rect width="126.93739244178786" height="6.880874736554052" y="97.56667531940116" x="0" fill="#2a160c" data-fill-palette-color="accent"></rect><rect width="126.93739244178786" height="6.880874736554052" y="83.80492584629306" x="268.5826075582121" fill="#2a160c" data-fill-palette-color="accent"></rect><rect width="126.93739244178786" height="6.880874736554052" y="83.80492584629306" x="0" fill="#2a160c" data-fill-palette-color="accent"></rect></g></svg></g><defs></defs></svg><rect width="395.52" height="199.7609985964508" fill="none" stroke="none" visibility="hidden"></rect></g></svg></g></svg>