<svg xmlns="http://www.w3.org/2000/svg" xmlns:xlink="http://www.w3.org/1999/xlink" width="700" zoomAndPan="magnify" viewBox="0 0 525 749.999995" height="1000" preserveAspectRatio="xMidYMid meet" version="1.0"><defs><g/><clipPath id="b9cea64fd7"><path d="M 54.523438 399.730469 L 469.933594 399.730469 L 469.933594 479.910156 L 54.523438 479.910156 Z M 54.523438 399.730469 " clip-rule="nonzero"/></clipPath><clipPath id="c2da5cdb4d"><path d="M 196.246094 269.996094 L 328.207031 269.996094 L 328.207031 380.804688 L 196.246094 380.804688 Z M 196.246094 269.996094 " clip-rule="nonzero"/></clipPath><clipPath id="3efbc0f513"><path d="M 336 372 L 469.933594 372 L 469.933594 380 L 336 380 Z M 336 372 " clip-rule="nonzero"/></clipPath><clipPath id="3f085f56ce"><path d="M 54.523438 372 L 188 372 L 188 380 L 54.523438 380 Z M 54.523438 372 " clip-rule="nonzero"/></clipPath><clipPath id="c34153fe17"><path d="M 336 358 L 469.933594 358 L 469.933594 366 L 336 366 Z M 336 358 " clip-rule="nonzero"/></clipPath><clipPath id="5f3db0d982"><path d="M 54.523438 358 L 188 358 L 188 366 L 54.523438 366 Z M 54.523438 358 " clip-rule="nonzero"/></clipPath><clipPath id="a73fce644c"><path d="M 402.625 38.402344 L 511 38.402344 L 511 116.402344 L 402.625 116.402344 Z M 402.625 38.402344 " clip-rule="nonzero"/></clipPath><clipPath id="102081c775"><path d="M 13.613281 38.144531 L 122.363281 38.144531 L 122.363281 116.144531 L 13.613281 116.144531 Z M 13.613281 38.144531 " clip-rule="nonzero"/></clipPath></defs><g clip-path="url(#b9cea64fd7)"><path fill="#883d1a" d="M 91.503906 479.910156 C 85.746094 479.910156 80.582031 479.023438 76.007812 477.25 C 71.433594 475.480469 67.558594 472.875 64.382812 469.433594 C 61.210938 466.007812 58.777344 461.820312 57.078125 456.875 C 55.382812 451.929688 54.535156 446.242188 54.535156 439.820312 C 54.535156 433.398438 55.507812 427.710938 57.457031 422.765625 C 59.417969 417.820312 62.097656 413.625 65.492188 410.183594 C 68.886719 406.757812 72.871094 404.160156 77.445312 402.390625 C 82.019531 400.617188 86.929688 399.730469 92.167969 399.730469 C 95.339844 399.730469 98.21875 399.96875 100.800781 400.441406 C 103.382812 400.925781 105.632812 401.464844 107.554688 402.054688 C 109.472656 402.648438 111.058594 403.273438 112.3125 403.9375 C 113.566406 404.605469 114.453125 405.082031 114.96875 405.378906 L 110.875 416.785156 C 109.101562 415.679688 106.578125 414.621094 103.300781 413.617188 C 100.011719 412.628906 96.445312 412.132812 92.609375 412.132812 C 89.289062 412.132812 86.191406 412.703125 83.3125 413.839844 C 80.433594 414.992188 77.949219 416.710938 75.851562 419 C 73.742188 421.289062 72.097656 424.167969 70.914062 427.636719 C 69.734375 431.109375 69.144531 435.132812 69.144531 439.710938 C 69.144531 443.769531 69.609375 447.5 70.539062 450.894531 C 71.453125 454.289062 72.871094 457.222656 74.789062 459.6875 C 76.707031 462.167969 79.144531 464.085938 82.09375 465.445312 C 85.046875 466.820312 88.589844 467.507812 92.71875 467.507812 C 97.664062 467.507812 101.6875 467.003906 104.785156 466 C 107.886719 465.011719 110.28125 464.074219 111.980469 463.1875 L 115.742188 474.59375 C 114.859375 475.183594 113.664062 475.773438 112.15625 476.367188 C 110.636719 476.957031 108.84375 477.523438 106.777344 478.070312 C 104.710938 478.632812 102.386719 479.082031 99.804688 479.421875 C 97.222656 479.746094 94.453125 479.910156 91.503906 479.910156 Z M 141.976562 466.175781 L 176.511719 466.175781 L 176.511719 478.25 L 128.03125 478.25 L 128.03125 401.503906 L 141.976562 401.503906 Z M 194.109375 439.820312 C 194.109375 444.027344 194.621094 447.84375 195.636719 451.269531 C 196.6875 454.710938 198.183594 457.636719 200.132812 460.042969 C 202.09375 462.433594 204.472656 464.292969 207.261719 465.625 C 210.078125 466.953125 213.257812 467.617188 216.800781 467.617188 C 220.269531 467.617188 223.40625 466.953125 226.210938 465.625 C 229.015625 464.292969 231.390625 462.433594 233.339844 460.042969 C 235.300781 457.636719 236.800781 454.710938 237.832031 451.269531 C 238.851562 447.84375 239.359375 444.027344 239.359375 439.820312 C 239.359375 435.613281 238.851562 431.789062 237.832031 428.347656 C 236.800781 424.921875 235.300781 422.003906 233.339844 419.597656 C 231.390625 417.207031 229.015625 415.347656 226.210938 414.015625 C 223.40625 412.6875 220.269531 412.023438 216.800781 412.023438 C 213.257812 412.023438 210.078125 412.6875 207.261719 414.015625 C 204.472656 415.347656 202.09375 417.226562 200.132812 419.664062 C 198.183594 422.101562 196.6875 425.015625 195.636719 428.414062 C 194.621094 431.808594 194.109375 435.613281 194.109375 439.820312 Z M 253.992188 439.820312 C 253.992188 446.390625 253.011719 452.1875 251.046875 457.207031 C 249.101562 462.226562 246.445312 466.414062 243.078125 469.765625 C 239.726562 473.132812 235.800781 475.664062 231.300781 477.363281 C 226.800781 479.058594 222.003906 479.910156 216.910156 479.910156 C 211.820312 479.910156 207 479.058594 202.457031 477.363281 C 197.910156 475.664062 193.960938 473.132812 190.613281 469.765625 C 187.261719 466.414062 184.589844 462.226562 182.597656 457.207031 C 180.605469 452.1875 179.609375 446.390625 179.609375 439.820312 C 179.609375 433.25 180.605469 427.46875 182.597656 422.476562 C 184.589844 417.5 187.300781 413.316406 190.722656 409.917969 C 194.160156 406.523438 198.132812 403.976562 202.632812 402.277344 C 207.132812 400.578125 211.894531 399.730469 216.910156 399.730469 C 221.914062 399.730469 226.675781 400.578125 231.191406 402.277344 C 235.691406 403.976562 239.617188 406.523438 242.96875 409.917969 C 246.332031 413.316406 249.003906 417.5 250.980469 422.476562 C 252.988281 427.46875 253.992188 433.25 253.992188 439.820312 Z M 258.839844 401.503906 L 320.050781 401.503906 L 320.050781 413.574219 L 296.472656 413.574219 L 296.472656 478.25 L 282.417969 478.25 L 282.417969 413.574219 L 258.839844 413.574219 Z M 377.941406 432.179688 L 377.941406 401.503906 L 391.886719 401.503906 L 391.886719 478.25 L 377.941406 478.25 L 377.941406 444.25 L 344.625 444.25 L 344.625 478.25 L 330.675781 478.25 L 330.675781 401.503906 L 344.625 401.503906 L 344.625 432.179688 Z M 436.050781 435.5 C 439.371094 429.964844 442.617188 424.351562 445.792969 418.667969 C 448.964844 412.984375 451.84375 407.261719 454.425781 401.503906 L 469.921875 401.503906 C 465.789062 409.328125 461.488281 417.09375 457.015625 424.804688 C 452.558594 432.527344 447.785156 440.300781 442.691406 448.125 L 442.691406 478.25 L 428.746094 478.25 L 428.746094 448.347656 C 423.652344 440.449219 418.859375 432.621094 414.355469 424.871094 C 409.855469 417.117188 405.539062 409.328125 401.40625 401.503906 L 417.789062 401.503906 C 420.371094 407.261719 423.210938 412.984375 426.3125 418.667969 C 429.410156 424.351562 432.65625 429.964844 436.050781 435.5 Z M 436.050781 435.5 " fill-opacity="1" fill-rule="nonzero"/></g><g clip-path="url(#c2da5cdb4d)"><path fill="#2a160c" d="M 296.527344 269.996094 L 279.445312 269.996094 C 279.445312 279.367188 271.730469 287.085938 262.363281 287.085938 C 252.996094 287.085938 245.285156 279.367188 245.285156 269.996094 L 228.203125 269.996094 L 196.246094 302.246094 L 213.878906 319.886719 L 228.203125 305.554688 L 228.203125 380.804688 L 296.25 380.804688 L 296.25 305.554688 L 310.578125 319.886719 L 328.207031 302.246094 Z M 296.527344 269.996094 " fill-opacity="1" fill-rule="nonzero"/></g><g clip-path="url(#3efbc0f513)"><path fill="#2a160c" d="M 336.613281 372.523438 L 469.933594 372.523438 L 469.933594 379.753906 L 336.613281 379.753906 Z M 336.613281 372.523438 " fill-opacity="1" fill-rule="nonzero"/></g><g clip-path="url(#3f085f56ce)"><path fill="#2a160c" d="M 54.523438 372.523438 L 187.84375 372.523438 L 187.84375 379.753906 L 54.523438 379.753906 Z M 54.523438 372.523438 " fill-opacity="1" fill-rule="nonzero"/></g><g clip-path="url(#c34153fe17)"><path fill="#2a160c" d="M 336.613281 358.0625 L 469.933594 358.0625 L 469.933594 365.292969 L 336.613281 365.292969 Z M 336.613281 358.0625 " fill-opacity="1" fill-rule="nonzero"/></g><g clip-path="url(#5f3db0d982)"><path fill="#2a160c" d="M 54.523438 358.0625 L 187.84375 358.0625 L 187.84375 365.292969 L 54.523438 365.292969 Z M 54.523438 358.0625 " fill-opacity="1" fill-rule="nonzero"/></g><g clip-path="url(#a73fce644c)"><path fill="#040606" d="M 473.445312 46.414062 C 474.503906 46.605469 475.609375 46.898438 476.734375 47.273438 C 478.683594 45.5625 480.871094 44.378906 483.019531 43.863281 C 482.273438 43.253906 481.523438 42.644531 480.777344 42.035156 C 479.566406 42.894531 478.292969 43.679688 477.0625 44.4375 C 476.644531 44.695312 476.226562 44.953125 475.8125 45.214844 C 475.613281 45.335938 474.972656 45.65625 473.9375 46.167969 C 473.78125 46.246094 473.613281 46.328125 473.445312 46.414062 Z M 478.832031 48.078125 C 479.835938 48.507812 480.867188 49.007812 481.953125 49.59375 C 482.570312 49.367188 483.191406 49.125 483.816406 48.878906 C 485.003906 48.414062 486.222656 47.9375 487.453125 47.550781 C 486.585938 46.816406 485.679688 46.058594 484.757812 45.296875 C 482.554688 46.109375 480.640625 47.003906 478.832031 48.078125 Z M 484.734375 51.222656 C 485.050781 51.421875 485.375 51.628906 485.710938 51.847656 C 487.046875 51.503906 488.339844 51.082031 489.328125 50.746094 C 489.605469 50.65625 489.882812 50.550781 490.160156 50.449219 C 490.3125 50.394531 490.46875 50.335938 490.625 50.28125 C 490.332031 50.023438 490.039062 49.765625 489.742188 49.507812 C 488.175781 50.335938 486.371094 50.835938 484.734375 51.222656 Z M 488.261719 53.59375 C 488.722656 53.921875 489.207031 54.273438 489.734375 54.660156 C 490.925781 54.390625 492.078125 54.09375 493.164062 53.769531 C 493.386719 53.703125 493.609375 53.632812 493.832031 53.5625 C 493.941406 53.527344 494.046875 53.492188 494.15625 53.457031 C 493.664062 53 493.167969 52.550781 492.671875 52.097656 C 491.386719 52.824219 489.835938 53.261719 488.261719 53.59375 Z M 492.421875 56.679688 C 492.503906 56.648438 492.59375 56.625 492.6875 56.613281 C 493.675781 56.5 494.734375 56.367188 495.792969 56.207031 C 496.171875 56.148438 496.542969 56.089844 496.925781 56.078125 C 496.6875 55.847656 496.445312 55.621094 496.203125 55.390625 C 495.03125 56.046875 493.621094 56.34375 492.261719 56.558594 C 492.316406 56.597656 492.367188 56.640625 492.421875 56.679688 Z M 498.515625 61.554688 C 498.632812 61.492188 498.761719 61.453125 498.898438 61.4375 L 499.164062 61.40625 C 499.777344 61.335938 500.410156 61.265625 501.050781 61.265625 C 501.246094 61.265625 501.441406 61.269531 501.632812 61.285156 C 501.746094 61.296875 501.851562 61.3125 501.949219 61.34375 C 500.9375 60.15625 499.875 59.027344 498.800781 57.9375 C 498.738281 58.015625 498.660156 58.085938 498.570312 58.144531 C 497.859375 58.613281 496.996094 58.683594 496.234375 58.75 C 496.042969 58.765625 495.855469 58.78125 495.671875 58.804688 C 495.523438 58.820312 495.371094 58.839844 495.21875 58.855469 C 495.378906 58.984375 495.539062 59.109375 495.699219 59.238281 C 495.878906 59.234375 496.054688 59.230469 496.234375 59.230469 C 496.832031 59.230469 497.53125 59.257812 498.21875 59.433594 C 498.566406 59.523438 498.8125 59.847656 498.8125 60.21875 C 498.8125 60.570312 498.582031 60.867188 498.242188 60.957031 C 498.128906 60.984375 498.015625 61.007812 497.894531 61.03125 C 498.101562 61.203125 498.308594 61.378906 498.515625 61.554688 Z M 410.742188 65.691406 C 411.777344 65.757812 412.890625 65.839844 414.125 65.933594 C 416.695312 63.925781 420.441406 62.390625 424.441406 61.671875 C 424.042969 61.644531 423.632812 61.605469 423.207031 61.566406 C 422.386719 61.492188 421.539062 61.414062 420.726562 61.414062 C 419.445312 61.414062 418.496094 61.609375 417.746094 62.027344 C 415.332031 63.371094 412.984375 64.597656 410.742188 65.691406 Z M 427.738281 67.074219 C 428.980469 67.175781 430.363281 67.289062 431.773438 67.390625 L 431.796875 67.378906 C 432.597656 66.9375 433.386719 66.480469 434.175781 66.023438 C 435.214844 65.425781 436.289062 64.804688 437.371094 64.230469 C 438.835938 63.453125 440.375 62.699219 442.003906 62.125 C 439.417969 62.074219 437.058594 62.019531 434.777344 61.964844 L 432.65625 61.914062 C 430.890625 61.871094 429.082031 61.824219 427.277344 61.773438 C 427.433594 61.957031 427.53125 62.195312 427.550781 62.464844 C 427.59375 63.136719 427.136719 63.710938 426.488281 63.796875 C 424.007812 64.136719 421.507812 64.976562 419.046875 66.304688 C 419.03125 66.3125 419.015625 66.320312 419 66.332031 C 419.984375 66.414062 420.972656 66.496094 421.960938 66.582031 C 423.167969 66.019531 424.449219 65.519531 425.582031 65.074219 C 426.058594 64.886719 426.523438 64.707031 426.960938 64.527344 C 430.210938 63.210938 433.015625 62.621094 436.058594 62.621094 L 436.402344 62.625 C 436.917969 62.632812 437.320312 63.027344 437.332031 63.546875 C 437.347656 64.054688 436.976562 64.460938 436.472656 64.496094 C 433.394531 64.714844 430.363281 65.882812 427.738281 67.074219 Z M 437.394531 67.742188 C 438.011719 67.773438 438.632812 67.800781 439.25 67.828125 L 439.90625 67.859375 C 441.558594 66.792969 443.375 65.953125 445.136719 65.144531 C 445.558594 64.953125 445.972656 64.761719 446.378906 64.570312 C 448.019531 63.800781 449.734375 63.050781 451.582031 62.296875 C 451.039062 62.285156 449.324219 62.257812 449.324219 62.257812 C 449.316406 62.3125 449.308594 62.367188 449.292969 62.421875 C 449.1875 62.839844 448.828125 63.109375 448.382812 63.109375 L 448.308594 63.109375 C 444.488281 63.109375 440.804688 65.304688 437.554688 67.242188 L 436.769531 67.710938 C 436.976562 67.722656 437.1875 67.734375 437.394531 67.742188 Z M 466.265625 67.898438 C 466.882812 67.953125 467.546875 67.996094 468.207031 67.996094 C 469.113281 67.996094 469.902344 67.917969 470.597656 67.765625 C 470.507812 66.746094 470.484375 65.722656 470.496094 64.746094 C 470.179688 65.019531 469.859375 65.304688 469.496094 65.550781 L 469.386719 65.625 C 468.457031 66.253906 467.496094 66.90625 466.613281 67.617188 C 466.496094 67.710938 466.378906 67.804688 466.265625 67.898438 Z M 446.433594 68.113281 L 446.835938 67.921875 C 447.390625 67.664062 447.964844 67.394531 448.492188 67.101562 C 449.472656 66.554688 450.464844 65.976562 451.421875 65.414062 C 452.09375 65.023438 452.761719 64.628906 453.441406 64.242188 C 451.457031 65.089844 449.484375 66.011719 447.53125 66.992188 C 446.867188 67.328125 446.195312 67.699219 445.527344 68.082031 C 445.828125 68.089844 446.128906 68.101562 446.433594 68.113281 Z M 453.183594 68.296875 C 454.160156 67.738281 455.207031 67.25 456.222656 66.777344 C 457.207031 66.316406 458.136719 65.882812 459.003906 65.390625 C 460.75 64.410156 462.539062 63.402344 464.382812 62.449219 L 464.113281 62.449219 C 460.683594 63.203125 457.554688 65.144531 454.527344 67.023438 C 454.007812 67.34375 453.488281 67.664062 452.972656 67.976562 C 452.8125 68.074219 452.652344 68.175781 452.484375 68.28125 C 452.71875 68.285156 452.949219 68.292969 453.183594 68.296875 Z M 501.238281 63.9375 C 503.527344 66.015625 505.503906 68.035156 507.222656 70.046875 C 507.054688 69.269531 506.722656 68.410156 506.226562 67.480469 C 505.285156 65.710938 504.148438 64.0625 502.910156 62.503906 C 502.914062 62.554688 502.917969 62.605469 502.917969 62.65625 C 502.917969 63.34375 502.421875 63.859375 501.710938 63.914062 C 501.554688 63.925781 501.394531 63.933594 501.238281 63.9375 Z M 478.136719 100.667969 C 478.496094 102.9375 478.480469 105.214844 478.359375 107.644531 C 483.554688 100.351562 489.425781 93.453125 495.117188 86.773438 C 498.625 82.65625 502.246094 78.402344 505.671875 74.101562 C 501.195312 68.355469 495.191406 63.5 490.433594 59.898438 L 490.316406 59.808594 C 485.589844 56.230469 480.253906 52.191406 474.523438 50.53125 C 474.472656 52.351562 474.390625 54.183594 474.308594 55.964844 C 474.261719 56.96875 474.21875 57.972656 474.175781 58.976562 C 474.136719 60.027344 474.125 61.121094 474.121094 62.179688 C 474.105469 64.480469 474.085938 66.863281 473.722656 69.136719 C 473.617188 69.804688 472.976562 70.367188 472.324219 70.367188 C 472.3125 70.367188 472.269531 70.367188 472.261719 70.367188 C 471.773438 70.339844 471.246094 70.328125 470.59375 70.328125 C 470.449219 70.328125 470.300781 70.332031 470.15625 70.332031 C 470.144531 70.6875 470.035156 71.042969 469.839844 71.335938 C 469.554688 71.761719 469.121094 72.023438 468.605469 72.074219 C 468.5625 72.085938 468.523438 72.089844 468.480469 72.089844 C 462.972656 72.078125 457.597656 72.003906 452.511719 71.871094 C 452.226562 71.925781 451.992188 71.957031 451.777344 71.976562 C 451.761719 71.976562 451.707031 71.980469 451.691406 71.980469 C 451.503906 71.980469 451.320312 71.929688 451.148438 71.832031 C 449.355469 71.78125 447.5625 71.714844 445.769531 71.644531 C 445.292969 71.742188 444.832031 71.792969 444.394531 71.792969 C 444.234375 71.792969 444.074219 71.785156 443.914062 71.773438 C 443.722656 71.757812 443.546875 71.683594 443.40625 71.558594 C 441.988281 71.496094 440.574219 71.429688 439.15625 71.359375 C 438.769531 71.5 438.441406 71.613281 438.128906 71.703125 C 438.039062 71.726562 437.953125 71.738281 437.863281 71.738281 C 437.597656 71.738281 437.34375 71.628906 437.152344 71.433594 C 437.101562 71.375 437.050781 71.3125 437.011719 71.246094 L 431.375 70.9375 C 429.46875 71.902344 427.902344 72.355469 426.457031 72.355469 C 425.90625 72.351562 425.472656 72.023438 425.332031 71.53125 C 425.230469 71.191406 425.300781 70.84375 425.503906 70.578125 C 424.039062 70.480469 422.65625 70.378906 421.3125 70.265625 C 420.386719 70.613281 419.5625 70.804688 418.796875 70.847656 C 418.785156 70.847656 418.75 70.847656 418.742188 70.847656 C 418.328125 70.847656 417.9375 70.574219 417.773438 70.167969 C 417.746094 70.089844 417.722656 70.015625 417.710938 69.9375 C 413.894531 69.558594 410.492188 69.09375 407.359375 68.527344 C 407.417969 68.613281 407.46875 68.703125 407.511719 68.804688 C 407.667969 69.179688 407.660156 69.609375 407.503906 69.960938 C 407.503906 69.996094 407.5 70.035156 407.5 70.078125 C 407.496094 70.460938 407.492188 70.839844 407.503906 71.222656 C 407.515625 71.871094 407.527344 72.515625 407.539062 73.160156 L 407.566406 74.777344 C 407.621094 77.480469 407.730469 80.226562 407.832031 82.882812 L 407.886719 84.335938 C 407.964844 86.402344 408.058594 88.464844 408.15625 90.53125 C 408.3125 93.96875 408.476562 97.523438 408.558594 101.03125 C 410.164062 100.898438 411.769531 100.773438 413.375 100.648438 C 417.589844 100.324219 421.945312 99.988281 426.222656 99.527344 C 427.410156 99.398438 428.59375 99.269531 429.78125 99.136719 C 435.027344 98.5625 440.449219 97.964844 445.808594 97.632812 C 449.941406 97.375 454.074219 97.339844 457.570312 97.339844 C 458.84375 97.339844 460.121094 97.34375 461.394531 97.351562 C 462.667969 97.355469 463.941406 97.359375 465.214844 97.359375 L 466.007812 97.359375 C 467.324219 97.359375 468.648438 97.332031 469.972656 97.3125 C 471.351562 97.285156 472.773438 97.261719 474.175781 97.261719 C 475.226562 97.261719 476.167969 97.273438 477.050781 97.304688 C 477.597656 97.304688 478.066406 97.507812 478.394531 97.875 C 478.742188 98.269531 478.914062 98.835938 478.847656 99.390625 C 478.816406 99.929688 478.554688 100.394531 478.136719 100.667969 Z M 475.941406 116.398438 C 475.414062 116.398438 474.941406 116.210938 474.605469 115.871094 C 474.28125 115.539062 474.109375 115.085938 474.117188 114.5625 C 474.132812 113.058594 474.246094 111.507812 474.359375 110.007812 C 474.582031 107.007812 474.808594 103.914062 474.265625 101.003906 C 473.367188 101.015625 472.46875 101.023438 471.570312 101.023438 C 468.832031 101.023438 466.046875 100.972656 463.351562 100.921875 C 460.664062 100.871094 457.882812 100.820312 455.152344 100.820312 C 451.648438 100.820312 448.738281 100.902344 445.992188 101.078125 C 441.554688 101.363281 436.996094 101.878906 432.585938 102.378906 C 425.828125 103.144531 418.84375 103.9375 411.988281 103.9375 C 409.855469 103.9375 407.785156 103.859375 405.835938 103.703125 C 405.234375 103.65625 404.765625 103.230469 404.671875 102.644531 C 404.605469 102.238281 404.742188 101.847656 405.023438 101.585938 C 404.992188 97.890625 404.867188 94.132812 404.742188 90.496094 C 404.640625 87.453125 404.535156 84.3125 404.484375 81.21875 C 404.484375 81.097656 404.472656 80.84375 404.453125 80.488281 C 404.097656 73.230469 404.40625 69.496094 405.457031 68.386719 C 405.597656 68.238281 405.746094 68.140625 405.886719 68.082031 C 405.84375 68.042969 405.800781 68.007812 405.765625 67.96875 C 405.289062 68.167969 404.8125 68.367188 404.339844 68.558594 C 404.207031 68.609375 404.066406 68.636719 403.925781 68.636719 C 403.445312 68.636719 402.996094 68.3125 402.804688 67.832031 C 402.621094 67.375 402.71875 66.890625 403.054688 66.566406 C 405.324219 64.375 408.269531 63 411.113281 61.671875 C 413.003906 60.789062 414.957031 59.878906 416.648438 58.746094 C 417.582031 58.121094 418.796875 57.828125 420.46875 57.828125 C 421.339844 57.828125 422.214844 57.90625 423.0625 57.976562 C 423.734375 58.035156 424.371094 58.09375 424.945312 58.101562 C 426.800781 58.140625 428.65625 58.191406 430.515625 58.238281 C 431.578125 58.269531 432.640625 58.296875 433.703125 58.324219 C 443.828125 58.574219 457.1875 58.859375 470.746094 58.863281 C 470.753906 58.597656 470.765625 58.328125 470.773438 58.0625 C 470.863281 54.757812 470.859375 51.449219 470.859375 48.25 C 470.859375 47.992188 470.902344 47.742188 470.996094 47.507812 C 470.894531 47.472656 470.800781 47.410156 470.722656 47.332031 C 470.484375 47.089844 470.378906 46.777344 470.417969 46.429688 C 470.582031 44.945312 473.621094 42.734375 478.472656 39.644531 C 479.152344 39.210938 479.742188 38.839844 479.925781 38.691406 C 480.167969 38.503906 480.46875 38.402344 480.789062 38.402344 C 481.167969 38.402344 481.5625 38.542969 481.875 38.789062 C 482.980469 39.667969 484.089844 40.535156 485.199219 41.40625 C 491.316406 46.195312 497.640625 51.152344 503.054688 57.058594 C 505.925781 60.191406 509.5 64.089844 510.703125 68.613281 C 511.375 71.136719 510.976562 75.273438 508.519531 76.601562 C 505.136719 80.859375 501.554688 85.070312 498.09375 89.140625 C 491.027344 97.453125 483.71875 106.046875 477.777344 115.421875 C 477.394531 116.023438 476.691406 116.398438 475.941406 116.398438 " fill-opacity="1" fill-rule="nonzero"/></g><g clip-path="url(#102081c775)"><path fill="#040606" d="M 51.542969 108.136719 C 50.484375 107.941406 49.378906 107.652344 48.253906 107.277344 C 46.304688 108.984375 44.117188 110.167969 41.972656 110.683594 C 42.71875 111.296875 43.464844 111.90625 44.210938 112.511719 C 45.421875 111.65625 46.695312 110.871094 47.925781 110.109375 C 48.34375 109.851562 48.761719 109.59375 49.175781 109.335938 C 49.375 109.210938 50.019531 108.890625 51.050781 108.382812 C 51.207031 108.304688 51.375 108.222656 51.542969 108.136719 Z M 46.15625 106.46875 C 45.152344 106.042969 44.121094 105.542969 43.035156 104.957031 C 42.417969 105.183594 41.796875 105.425781 41.171875 105.671875 C 39.984375 106.136719 38.765625 106.613281 37.535156 106.996094 C 38.40625 107.734375 39.308594 108.488281 40.230469 109.253906 C 42.433594 108.441406 44.347656 107.542969 46.15625 106.46875 Z M 40.253906 103.328125 C 39.9375 103.128906 39.613281 102.921875 39.277344 102.703125 C 37.941406 103.046875 36.648438 103.46875 35.660156 103.800781 C 35.382812 103.894531 35.105469 104 34.828125 104.097656 C 34.675781 104.15625 34.519531 104.214844 34.363281 104.269531 C 34.65625 104.527344 34.949219 104.785156 35.246094 105.039062 C 36.8125 104.214844 38.617188 103.710938 40.253906 103.328125 Z M 36.726562 100.957031 C 36.265625 100.628906 35.78125 100.277344 35.257812 99.890625 C 34.0625 100.15625 32.910156 100.457031 31.824219 100.78125 C 31.601562 100.84375 31.378906 100.917969 31.15625 100.988281 C 31.050781 101.023438 30.941406 101.058594 30.832031 101.09375 C 31.324219 101.546875 31.820312 102 32.320312 102.449219 C 33.601562 101.726562 35.152344 101.289062 36.726562 100.957031 Z M 32.566406 97.871094 C 32.484375 97.902344 32.394531 97.925781 32.300781 97.933594 C 31.316406 98.050781 30.253906 98.179688 29.195312 98.34375 C 28.820312 98.402344 28.445312 98.460938 28.0625 98.472656 C 28.300781 98.699219 28.542969 98.929688 28.785156 99.160156 C 29.957031 98.503906 31.371094 98.203125 32.726562 97.992188 C 32.675781 97.949219 32.621094 97.910156 32.566406 97.871094 Z M 26.472656 92.996094 C 26.355469 93.058594 26.226562 93.097656 26.089844 93.113281 L 25.824219 93.144531 C 25.214844 93.210938 24.578125 93.285156 23.9375 93.285156 C 23.742188 93.285156 23.550781 93.277344 23.355469 93.261719 C 23.242188 93.253906 23.136719 93.234375 23.039062 93.207031 C 24.050781 94.390625 25.117188 95.523438 26.1875 96.613281 C 26.25 96.53125 26.328125 96.464844 26.417969 96.402344 C 27.128906 95.9375 27.992188 95.867188 28.753906 95.800781 C 28.945312 95.785156 29.132812 95.769531 29.316406 95.746094 C 29.464844 95.726562 29.617188 95.710938 29.769531 95.691406 C 29.609375 95.566406 29.449219 95.4375 29.289062 95.3125 C 29.109375 95.316406 28.933594 95.316406 28.753906 95.316406 C 28.160156 95.316406 27.457031 95.292969 26.769531 95.117188 C 26.421875 95.027344 26.175781 94.703125 26.175781 94.332031 C 26.175781 93.980469 26.40625 93.683594 26.746094 93.59375 C 26.859375 93.566406 26.972656 93.539062 27.09375 93.515625 C 26.886719 93.34375 26.679688 93.171875 26.472656 92.996094 Z M 114.246094 88.859375 C 113.210938 88.789062 112.097656 88.710938 110.863281 88.613281 C 108.292969 90.621094 104.546875 92.160156 100.546875 92.878906 C 100.945312 92.90625 101.355469 92.941406 101.785156 92.980469 C 102.601562 93.058594 103.449219 93.136719 104.261719 93.136719 C 105.542969 93.136719 106.492188 92.941406 107.242188 92.523438 C 109.65625 91.179688 112.003906 89.953125 114.246094 88.859375 Z M 97.25 87.472656 C 96.007812 87.371094 94.625 87.261719 93.214844 87.160156 L 93.191406 87.171875 C 92.390625 87.613281 91.601562 88.070312 90.8125 88.527344 C 89.773438 89.125 88.699219 89.746094 87.621094 90.316406 C 86.152344 91.09375 84.613281 91.851562 82.984375 92.425781 C 85.570312 92.476562 87.929688 92.527344 90.210938 92.585938 L 92.332031 92.636719 C 94.097656 92.679688 95.90625 92.726562 97.710938 92.777344 C 97.554688 92.59375 97.457031 92.355469 97.4375 92.082031 C 97.394531 91.414062 97.851562 90.839844 98.5 90.75 C 100.980469 90.414062 103.480469 89.570312 105.941406 88.246094 C 105.957031 88.238281 105.972656 88.230469 105.988281 88.21875 C 105.003906 88.136719 104.015625 88.050781 103.027344 87.964844 C 101.820312 88.53125 100.539062 89.03125 99.40625 89.472656 C 98.929688 89.660156 98.464844 89.84375 98.027344 90.019531 C 94.777344 91.339844 91.972656 91.925781 88.929688 91.925781 L 88.585938 91.925781 C 88.070312 91.917969 87.667969 91.519531 87.65625 91 C 87.640625 90.496094 88.011719 90.085938 88.515625 90.050781 C 91.59375 89.835938 94.625 88.667969 97.25 87.472656 Z M 87.59375 86.808594 C 86.976562 86.773438 86.359375 86.75 85.738281 86.722656 L 85.082031 86.691406 C 83.429688 87.757812 81.613281 88.59375 79.851562 89.402344 C 79.429688 89.597656 79.015625 89.789062 78.609375 89.980469 C 76.96875 90.75 75.253906 91.5 73.40625 92.253906 C 73.949219 92.265625 75.667969 92.292969 75.667969 92.292969 C 75.671875 92.238281 75.679688 92.183594 75.695312 92.128906 C 75.800781 91.710938 76.160156 91.4375 76.605469 91.4375 L 76.679688 91.4375 C 80.503906 91.4375 84.183594 89.242188 87.433594 87.304688 L 88.222656 86.839844 C 88.011719 86.828125 87.800781 86.816406 87.59375 86.808594 Z M 58.722656 86.652344 C 58.105469 86.597656 57.441406 86.554688 56.78125 86.554688 C 55.875 86.554688 55.085938 86.628906 54.390625 86.785156 C 54.480469 87.804688 54.503906 88.828125 54.492188 89.800781 C 54.808594 89.527344 55.132812 89.246094 55.492188 89 L 55.601562 88.925781 C 56.53125 88.292969 57.492188 87.640625 58.378906 86.929688 C 58.492188 86.839844 58.609375 86.746094 58.722656 86.652344 Z M 78.554688 86.4375 L 78.152344 86.628906 C 77.597656 86.886719 77.023438 87.15625 76.496094 87.445312 C 75.515625 87.996094 74.523438 88.574219 73.570312 89.132812 C 72.894531 89.527344 72.226562 89.921875 71.550781 90.308594 C 73.53125 89.457031 75.503906 88.539062 77.457031 87.558594 C 78.121094 87.222656 78.796875 86.847656 79.460938 86.46875 C 79.160156 86.457031 78.859375 86.445312 78.554688 86.4375 Z M 71.804688 86.253906 C 70.828125 86.808594 69.78125 87.300781 68.765625 87.773438 C 67.78125 88.234375 66.851562 88.667969 65.984375 89.15625 C 64.238281 90.140625 62.449219 91.148438 60.605469 92.097656 L 60.875 92.101562 C 64.304688 91.34375 67.433594 89.402344 70.460938 87.527344 C 70.980469 87.203125 71.5 86.882812 72.015625 86.570312 C 72.175781 86.476562 72.339844 86.371094 72.503906 86.269531 C 72.269531 86.261719 72.039062 86.257812 71.804688 86.253906 Z M 23.75 90.613281 C 21.460938 88.53125 19.484375 86.515625 17.765625 84.503906 C 17.933594 85.28125 18.265625 86.136719 18.761719 87.066406 C 19.703125 88.835938 20.839844 90.488281 22.082031 92.042969 C 22.074219 91.992188 22.070312 91.941406 22.070312 91.890625 C 22.070312 91.207031 22.566406 90.691406 23.277344 90.636719 C 23.433594 90.625 23.59375 90.617188 23.75 90.613281 Z M 46.851562 53.882812 C 46.492188 51.613281 46.507812 49.335938 46.628906 46.902344 C 41.433594 54.199219 35.5625 61.09375 29.871094 67.777344 C 26.363281 71.894531 22.742188 76.144531 19.316406 80.445312 C 23.792969 86.195312 29.796875 91.050781 34.554688 94.652344 L 34.671875 94.738281 C 39.398438 98.316406 44.734375 102.355469 50.464844 104.019531 C 50.515625 102.199219 50.597656 100.363281 50.679688 98.585938 C 50.726562 97.582031 50.773438 96.578125 50.8125 95.574219 C 50.851562 94.523438 50.863281 93.425781 50.867188 92.367188 C 50.886719 90.066406 50.902344 87.6875 51.265625 85.414062 C 51.371094 84.746094 52.011719 84.179688 52.667969 84.179688 C 52.675781 84.179688 52.71875 84.183594 52.726562 84.183594 C 53.214844 84.207031 53.742188 84.21875 54.394531 84.21875 C 54.539062 84.21875 54.6875 84.21875 54.832031 84.21875 C 54.84375 83.859375 54.953125 83.507812 55.148438 83.214844 C 55.433594 82.785156 55.871094 82.527344 56.386719 82.472656 C 56.425781 82.464844 56.464844 82.460938 56.507812 82.460938 C 62.015625 82.46875 67.390625 82.542969 72.476562 82.675781 C 72.761719 82.625 72.996094 82.59375 73.210938 82.574219 C 73.226562 82.570312 73.285156 82.570312 73.296875 82.570312 C 73.484375 82.570312 73.667969 82.621094 73.839844 82.71875 C 75.632812 82.769531 77.429688 82.835938 79.21875 82.90625 C 79.695312 82.808594 80.15625 82.753906 80.59375 82.753906 C 80.753906 82.753906 80.917969 82.761719 81.074219 82.777344 C 81.265625 82.792969 81.441406 82.867188 81.582031 82.992188 C 83 83.050781 84.414062 83.121094 85.832031 83.191406 C 86.21875 83.046875 86.546875 82.9375 86.859375 82.847656 C 86.949219 82.824219 87.035156 82.808594 87.128906 82.808594 C 87.390625 82.808594 87.648438 82.921875 87.835938 83.117188 C 87.890625 83.171875 87.9375 83.238281 87.976562 83.300781 L 93.613281 83.613281 C 95.519531 82.644531 97.085938 82.191406 98.53125 82.191406 C 99.082031 82.195312 99.515625 82.527344 99.660156 83.019531 C 99.757812 83.359375 99.6875 83.703125 99.484375 83.96875 C 100.949219 84.070312 102.332031 84.171875 103.675781 84.28125 C 104.601562 83.9375 105.425781 83.746094 106.191406 83.703125 C 106.203125 83.703125 106.238281 83.699219 106.246094 83.699219 C 106.660156 83.699219 107.050781 83.972656 107.214844 84.382812 C 107.242188 84.457031 107.265625 84.535156 107.277344 84.609375 C 111.09375 84.992188 114.496094 85.457031 117.628906 86.019531 C 117.570312 85.9375 117.519531 85.84375 117.476562 85.746094 C 117.320312 85.371094 117.328125 84.9375 117.484375 84.589844 C 117.488281 84.554688 117.488281 84.515625 117.488281 84.472656 C 117.492188 84.089844 117.496094 83.707031 117.484375 83.328125 C 117.472656 82.679688 117.460938 82.035156 117.449219 81.386719 L 117.421875 79.773438 C 117.367188 77.070312 117.257812 74.324219 117.15625 71.667969 L 117.101562 70.210938 C 117.023438 68.148438 116.929688 66.082031 116.832031 64.019531 C 116.675781 60.578125 116.511719 57.027344 116.429688 53.519531 C 114.824219 53.648438 113.21875 53.773438 111.613281 53.898438 C 107.398438 54.226562 103.042969 54.5625 98.765625 55.023438 C 97.582031 55.152344 96.394531 55.28125 95.207031 55.410156 C 89.960938 55.988281 84.539062 56.582031 79.179688 56.917969 C 75.046875 57.175781 70.914062 57.210938 67.417969 57.210938 C 66.144531 57.210938 64.867188 57.203125 63.59375 57.199219 C 62.320312 57.195312 61.046875 57.1875 59.773438 57.1875 L 58.980469 57.1875 C 57.664062 57.191406 56.339844 57.214844 55.015625 57.238281 C 53.636719 57.265625 52.214844 57.289062 50.8125 57.289062 C 49.761719 57.289062 48.820312 57.277344 47.9375 57.246094 C 47.390625 57.246094 46.921875 57.042969 46.59375 56.675781 C 46.246094 56.277344 46.074219 55.714844 46.140625 55.160156 C 46.171875 54.617188 46.433594 54.15625 46.851562 53.882812 Z M 49.046875 38.152344 C 49.574219 38.152344 50.046875 38.339844 50.382812 38.675781 C 50.707031 39.007812 50.878906 39.460938 50.871094 39.988281 C 50.855469 41.488281 50.742188 43.042969 50.628906 44.542969 C 50.40625 47.539062 50.179688 50.636719 50.722656 53.546875 C 51.621094 53.535156 52.519531 53.527344 53.417969 53.527344 C 56.15625 53.527344 58.941406 53.578125 61.636719 53.628906 C 64.324219 53.675781 67.105469 53.726562 69.839844 53.726562 C 73.339844 53.726562 76.25 53.644531 78.996094 53.46875 C 83.433594 53.1875 87.992188 52.671875 92.402344 52.171875 C 99.160156 51.40625 106.144531 50.613281 113 50.613281 C 115.132812 50.613281 117.203125 50.691406 119.152344 50.84375 C 119.753906 50.894531 120.222656 51.320312 120.316406 51.90625 C 120.382812 52.3125 120.246094 52.703125 119.964844 52.960938 C 119.996094 56.660156 120.121094 60.417969 120.246094 64.054688 C 120.347656 67.09375 120.453125 70.238281 120.503906 73.332031 C 120.503906 73.453125 120.515625 73.707031 120.535156 74.0625 C 120.890625 81.320312 120.582031 85.050781 119.53125 86.164062 C 119.390625 86.3125 119.242188 86.410156 119.101562 86.46875 C 119.148438 86.503906 119.1875 86.542969 119.222656 86.582031 C 119.699219 86.382812 120.175781 86.183594 120.648438 85.992188 C 120.78125 85.941406 120.921875 85.910156 121.0625 85.910156 C 121.542969 85.910156 121.992188 86.234375 122.1875 86.71875 C 122.367188 87.175781 122.269531 87.660156 121.933594 87.984375 C 119.664062 90.175781 116.722656 91.546875 113.875 92.878906 C 111.984375 93.757812 110.03125 94.671875 108.339844 95.800781 C 107.40625 96.429688 106.191406 96.71875 104.519531 96.71875 C 103.648438 96.71875 102.773438 96.644531 101.925781 96.570312 C 101.253906 96.511719 100.617188 96.457031 100.046875 96.445312 C 98.1875 96.410156 96.332031 96.359375 94.476562 96.308594 C 93.414062 96.28125 92.351562 96.253906 91.289062 96.226562 C 81.160156 95.976562 67.800781 95.691406 54.242188 95.683594 C 54.234375 95.953125 54.222656 96.222656 54.214844 96.488281 C 54.125 99.789062 54.128906 103.097656 54.128906 106.296875 C 54.128906 106.558594 54.085938 106.808594 53.992188 107.039062 C 54.09375 107.078125 54.1875 107.140625 54.265625 107.21875 C 54.503906 107.460938 54.609375 107.769531 54.570312 108.117188 C 54.40625 109.601562 51.367188 111.816406 46.515625 114.902344 C 45.835938 115.335938 45.25 115.710938 45.0625 115.855469 C 44.820312 116.046875 44.519531 116.148438 44.199219 116.148438 C 43.820312 116.148438 43.425781 116.007812 43.113281 115.757812 C 42.007812 114.882812 40.898438 114.015625 39.789062 113.144531 C 33.671875 108.355469 27.347656 103.398438 21.933594 97.492188 C 19.0625 94.359375 15.488281 90.460938 14.285156 85.9375 C 13.617188 83.414062 14.011719 79.273438 16.46875 77.945312 C 19.851562 73.691406 23.433594 69.480469 26.894531 65.40625 C 33.960938 57.09375 41.269531 48.5 47.214844 39.128906 C 47.59375 38.523438 48.296875 38.152344 49.046875 38.152344 " fill-opacity="1" fill-rule="nonzero"/></g><g fill="#000000" fill-opacity="1"><g transform="translate(156.632807, 64.530205)"><g><path d="M 26.785156 -46.871094 C 21.4375 -46.871094 16.039062 -43.847656 14.257812 -38.394531 C 13.933594 -37.3125 13.714844 -36.289062 13.714844 -35.261719 C 13.714844 -30.5625 16.957031 -27 20.035156 -23.21875 C 22.570312 -20.140625 24.949219 -17.605469 24.949219 -14.363281 C 24.949219 -9.988281 21.113281 -7.34375 17.605469 -7.34375 C 13.714844 -7.398438 10.636719 -9.664062 10.691406 -13.5 C 10.746094 -13.769531 10.746094 -14.039062 10.746094 -14.257812 C 10.746094 -17.335938 8.695312 -18.738281 6.589844 -18.738281 C 4.429688 -18.738281 2.214844 -17.171875 2.214844 -14.148438 C 1.945312 -5.5625 9.503906 0 17.65625 0 C 26.296875 0 34.128906 -6.804688 34.128906 -15.121094 C 34.128906 -20.734375 30.402344 -25.054688 27.109375 -28.726562 L 26.460938 -29.429688 C 24.40625 -31.644531 22.789062 -34.074219 22.789062 -36.070312 C 22.789062 -38.449219 25.542969 -39.472656 26.785156 -39.421875 C 28.457031 -39.3125 29.644531 -38.125 30.5625 -36.289062 C 31.265625 -34.613281 32.671875 -33.859375 34.128906 -33.859375 C 36.070312 -33.859375 38.015625 -35.316406 38.015625 -37.800781 C 38.015625 -38.339844 37.960938 -38.824219 37.800781 -39.421875 C 36.558594 -43.632812 32.292969 -46.871094 26.785156 -46.871094 Z M 26.785156 -46.871094 "/></g></g></g><g fill="#000000" fill-opacity="1"><g transform="translate(193.352822, 64.530205)"><g><path d="M 13.390625 -11.015625 C 12.472656 -8.316406 10.585938 -6.425781 8.746094 -6.425781 C 7.828125 -6.425781 7.289062 -7.074219 7.289062 -7.882812 C 7.289062 -8.207031 7.34375 -8.53125 7.453125 -8.855469 L 13.445312 -26.296875 C 13.660156 -26.890625 13.769531 -27.433594 13.769531 -27.972656 C 13.769531 -30.1875 11.824219 -31.699219 9.828125 -31.699219 C 8.316406 -31.699219 6.695312 -30.78125 5.941406 -28.621094 L -0.433594 -10.207031 C -0.808594 -9.179688 -0.972656 -8.101562 -0.972656 -7.183594 C -0.972656 -2.808594 2.59375 0 6.910156 0 C 9.71875 0 12.203125 -1.1875 14.148438 -3.023438 C 15.820312 -1.1875 18.574219 0 21.382812 0 C 26.460938 0 31.804688 -3.238281 33.910156 -8.640625 C 35.261719 -7.667969 37.097656 -7.128906 39.042969 -7.128906 C 43.363281 -7.128906 47.898438 -10.691406 48.871094 -14.902344 C 48.925781 -15.226562 48.976562 -15.496094 48.976562 -15.769531 C 48.976562 -17.65625 47.519531 -18.683594 45.898438 -18.683594 C 44.550781 -18.683594 43.09375 -17.929688 42.445312 -16.253906 C 41.796875 -14.578125 40.554688 -13.554688 38.933594 -13.554688 C 37.421875 -13.554688 36.289062 -14.363281 36.394531 -15.550781 L 39.203125 -22.949219 C 39.742188 -24.300781 39.90625 -25.542969 39.90625 -26.621094 C 39.90625 -29.699219 38.179688 -31.699219 35.101562 -31.699219 C 30.078125 -31.699219 27.269531 -25.003906 27.269531 -19.601562 C 27.269531 -17.65625 27.648438 -15.929688 28.402344 -14.6875 L 26.785156 -10.367188 C 25.921875 -8.046875 24.300781 -6.425781 22.410156 -6.425781 C 21.328125 -6.425781 20.683594 -7.128906 20.683594 -8.101562 C 20.683594 -8.476562 20.734375 -8.910156 20.84375 -9.234375 L 27 -26.296875 C 27.214844 -26.890625 27.324219 -27.433594 27.324219 -27.972656 C 27.324219 -30.1875 25.378906 -31.699219 23.382812 -31.699219 C 21.871094 -31.699219 20.25 -30.78125 19.492188 -28.621094 Z M 13.390625 -11.015625 "/></g></g></g><g fill="#000000" fill-opacity="1"><g transform="translate(233.744833, 64.530205)"><g><path d="M 14.527344 -36.664062 C 16.957031 -36.664062 18.953125 -38.664062 18.953125 -41.148438 C 18.953125 -43.578125 16.957031 -45.523438 14.527344 -45.523438 C 12.097656 -45.523438 10.097656 -43.578125 10.097656 -41.148438 C 10.097656 -38.664062 12.097656 -36.664062 14.527344 -36.664062 Z M 7.234375 -9.125 L 13.175781 -26.082031 C 13.390625 -26.785156 13.660156 -27.539062 13.660156 -28.078125 C 13.660156 -30.457031 11.878906 -31.699219 10.042969 -31.699219 C 8.371094 -31.699219 6.589844 -30.511719 5.722656 -27.972656 C 3.996094 -22.894531 1.726562 -16.46875 0 -11.449219 C -0.324219 -10.367188 -0.757812 -8.910156 -0.757812 -7.992188 C -0.757812 -2.914062 3.457031 0 8.425781 0 C 13.714844 0 19.546875 -3.238281 23.328125 -14.417969 C 23.4375 -14.742188 23.488281 -15.066406 23.488281 -15.390625 C 23.488281 -17.0625 21.871094 -18.089844 20.25 -18.089844 C 18.792969 -18.089844 17.335938 -17.335938 16.6875 -15.660156 C 14.148438 -8.640625 11.285156 -6.425781 9.125 -6.425781 C 7.882812 -6.425781 7.074219 -7.234375 7.074219 -8.261719 C 7.074219 -8.53125 7.128906 -8.800781 7.234375 -9.125 Z M 7.234375 -9.125 "/></g></g></g><g fill="#000000" fill-opacity="1"><g transform="translate(248.648839, 64.530205)"><g><path d="M 29.429688 -15.550781 C 27.703125 -11.125 24.570312 -8.261719 20.84375 -6.910156 L 21.328125 -8.046875 C 22.84375 -12.148438 24.40625 -16.632812 25.921875 -20.789062 C 26.242188 -21.707031 26.40625 -22.625 26.40625 -23.597656 C 26.40625 -27.972656 22.789062 -31.699219 18.574219 -31.699219 C 17.117188 -31.699219 15.390625 -31.429688 14.203125 -30.457031 C 14.308594 -31.753906 12.527344 -32.777344 10.585938 -32.777344 C 8.800781 -32.777344 7.074219 -31.804688 6.265625 -29.539062 L -7.183594 8.476562 C -7.453125 9.179688 -7.558594 9.773438 -7.558594 10.3125 C -7.558594 12.527344 -5.722656 13.660156 -3.78125 13.660156 C -1.996094 13.660156 -0.214844 12.796875 0.433594 10.800781 L 4.753906 -1.996094 C 6.425781 -0.703125 9.664062 0 14.148438 0 C 24.625 0 32.453125 -4.15625 36.019531 -14.363281 C 36.179688 -14.851562 36.289062 -15.28125 36.289062 -15.660156 C 36.289062 -17.441406 34.777344 -18.523438 33.15625 -18.523438 C 31.699219 -18.523438 30.078125 -17.605469 29.429688 -15.550781 Z M 7.613281 -9.9375 L 11.933594 -22.464844 C 12.582031 -24.40625 13.984375 -25.324219 15.496094 -25.324219 C 16.792969 -25.324219 17.980469 -24.40625 17.980469 -23.058594 C 17.980469 -22.570312 17.875 -22.085938 17.710938 -21.546875 C 16.363281 -17.28125 14.851562 -13.285156 13.390625 -9.070312 C 12.796875 -7.453125 11.339844 -6.480469 9.882812 -6.425781 C 8.476562 -6.425781 7.398438 -7.183594 7.398438 -8.695312 C 7.398438 -9.070312 7.453125 -9.503906 7.613281 -9.9375 Z M 7.613281 -9.9375 "/></g></g></g><g fill="#000000" fill-opacity="1"><g transform="translate(276.296848, 64.530205)"><g><path d="M 27.324219 -15.226562 C 24.949219 -8.964844 19.277344 -6.425781 14.6875 -6.425781 C 10.746094 -6.425781 8.261719 -8.316406 8.261719 -10.800781 C 8.261719 -11.285156 8.316406 -11.773438 8.53125 -12.3125 L 8.964844 -13.339844 C 10.53125 -12.367188 12.472656 -11.71875 14.632812 -11.71875 C 19.546875 -11.71875 23.867188 -14.796875 25.324219 -19.65625 C 25.597656 -20.683594 25.757812 -21.707031 25.757812 -22.625 C 25.757812 -27.757812 21.707031 -31.699219 15.605469 -31.699219 C 10.800781 -31.699219 6.101562 -28.890625 4.210938 -23.488281 L 1.027344 -14.257812 C 0.59375 -12.960938 0.324219 -11.664062 0.324219 -10.421875 C 0.324219 -3.996094 6.371094 0 14.257812 0 C 21.761719 0 30.292969 -3.671875 33.859375 -13.984375 C 34.019531 -14.417969 34.074219 -14.796875 34.074219 -15.121094 C 34.074219 -16.792969 32.5625 -17.710938 30.941406 -17.710938 C 29.429688 -17.710938 27.808594 -16.902344 27.324219 -15.226562 Z M 15.445312 -25.324219 C 16.957031 -25.324219 17.929688 -24.085938 17.929688 -22.519531 C 17.929688 -22.085938 17.875 -21.652344 17.710938 -21.222656 C 17.171875 -19.441406 15.550781 -18.792969 13.933594 -18.792969 C 12.90625 -18.792969 11.878906 -19.007812 11.125 -19.441406 L 12.257812 -22.679688 C 12.851562 -24.355469 14.203125 -25.324219 15.445312 -25.324219 Z M 15.445312 -25.324219 "/></g></g></g><g fill="#000000" fill-opacity="1"><g transform="translate(301.892852, 64.530205)"><g/></g></g><g fill="#000000" fill-opacity="1"><g transform="translate(322.52086, 64.530205)"><g><path d="M 19.277344 -15.226562 C 17.117188 -9.289062 13.714844 -6.425781 10.585938 -6.425781 C 8.640625 -6.425781 7.453125 -7.613281 7.453125 -9.070312 C 7.453125 -9.449219 7.558594 -9.882812 7.667969 -10.261719 L 12.960938 -25.324219 L 16.46875 -25.324219 C 19.222656 -25.324219 20.683594 -27.269531 20.683594 -29.050781 C 20.683594 -30.457031 19.765625 -31.699219 17.710938 -31.699219 L 15.28125 -31.699219 L 18.898438 -42.226562 C 19.007812 -42.605469 19.0625 -42.929688 19.0625 -43.253906 C 19.0625 -45.253906 17.65625 -46.871094 15.28125 -46.871094 C 13.5 -46.871094 11.988281 -45.628906 11.339844 -43.738281 L 7.019531 -31.699219 L 4.753906 -31.699219 C 1.835938 -31.699219 0.59375 -29.863281 0.59375 -28.132812 C 0.59375 -26.621094 1.511719 -25.324219 2.96875 -25.324219 L 4.753906 -25.324219 L 0.214844 -12.3125 L 0.214844 -12.367188 C -0.214844 -11.070312 -0.433594 -9.882812 -0.433594 -8.746094 C -0.433594 -3.238281 4.480469 0 10.042969 0 C 16.957031 0 22.734375 -5.128906 25.8125 -13.984375 C 25.921875 -14.363281 26.027344 -14.742188 26.027344 -15.066406 C 26.027344 -16.6875 24.460938 -17.710938 22.789062 -17.710938 C 21.4375 -17.710938 19.925781 -16.957031 19.277344 -15.226562 Z M 19.277344 -15.226562 "/></g></g></g><g fill="#000000" fill-opacity="1"><g transform="translate(340.178864, 64.530205)"><g><path d="M 22.84375 -11.285156 C 22.84375 -11.230469 22.84375 -12.097656 22.625 -13.121094 C 23.003906 -13.390625 23.382812 -13.824219 23.707031 -14.308594 C 24.625 -15.660156 26.242188 -20.359375 26.242188 -22.519531 C 26.242188 -28.027344 21.707031 -31.699219 15.875 -31.699219 C 10.800781 -31.699219 5.992188 -28.890625 4.265625 -24.085938 L 0.324219 -12.960938 C -0.160156 -11.609375 -0.378906 -10.261719 -0.378906 -9.070312 C -0.378906 -3.402344 4.480469 0 9.988281 0 C 14.203125 0 18.035156 -1.351562 20.304688 -5.238281 C 21.277344 -4.96875 22.410156 -4.804688 23.542969 -4.804688 C 29.914062 -4.804688 34.9375 -9.34375 36.773438 -15.011719 C 36.9375 -15.605469 37.042969 -16.144531 37.042969 -16.632812 C 37.042969 -18.628906 35.585938 -19.765625 34.019531 -19.765625 C 32.5625 -19.765625 31.050781 -18.898438 30.457031 -16.902344 C 29.269531 -13.554688 26.785156 -11.230469 23.597656 -11.230469 C 23.382812 -11.230469 23.058594 -11.230469 22.84375 -11.285156 Z M 17.820312 -19.601562 C 17.65625 -19.117188 17.496094 -18.683594 17.441406 -18.253906 C 14.472656 -18.574219 11.824219 -16.144531 11.824219 -12.90625 C 11.878906 -11.070312 12.796875 -10.097656 13.824219 -9.234375 C 13.121094 -7.34375 11.554688 -6.425781 9.882812 -6.425781 C 7.777344 -6.425781 7.234375 -7.722656 7.234375 -9.019531 C 7.234375 -10.042969 7.507812 -11.015625 7.722656 -11.554688 L 11.554688 -22.519531 C 12.203125 -24.300781 14.09375 -25.324219 15.769531 -25.324219 C 17.441406 -25.324219 18.523438 -24.191406 18.523438 -22.949219 C 18.523438 -21.976562 18.199219 -20.734375 17.820312 -19.601562 Z M 17.820312 -19.601562 "/></g></g></g><g fill="#000000" fill-opacity="1"><g transform="translate(186.632806, 139.530201)"><g><path d="M 27.378906 -15.660156 C 25.324219 -10.367188 22.570312 -6.425781 20.304688 -6.425781 C 19.546875 -6.425781 19.171875 -7.128906 19.171875 -7.882812 C 19.171875 -8.207031 19.222656 -8.640625 19.386719 -9.070312 L 22.570312 -17.929688 C 22.894531 -19.007812 23.113281 -19.980469 23.113281 -20.898438 C 23.113281 -26.027344 16.632812 -28.1875 13.609375 -29.105469 C 13.769531 -29.539062 13.824219 -30.023438 13.824219 -30.457031 C 13.824219 -32.941406 11.609375 -35.046875 9.179688 -35.046875 C 5.992188 -35.046875 4.105469 -32.238281 4.105469 -29.160156 C 4.105469 -27.808594 4.589844 -26.40625 5.453125 -25.324219 L 1.511719 -14.6875 C 1.402344 -14.257812 1.351562 -13.824219 1.351562 -13.5 C 1.351562 -11.71875 2.753906 -10.800781 4.265625 -10.800781 C 5.777344 -10.800781 7.34375 -11.664062 7.992188 -13.390625 L 11.015625 -21.492188 C 12.527344 -21.007812 14.527344 -20.628906 14.527344 -18.792969 C 14.527344 -18.523438 14.472656 -18.199219 14.363281 -17.820312 L 11.988281 -11.230469 C 11.554688 -9.988281 11.339844 -8.855469 11.339844 -7.777344 C 11.339844 -3.078125 15.066406 0 19.546875 0 C 25.433594 0 30.78125 -5.238281 33.964844 -14.363281 C 34.074219 -14.6875 34.128906 -14.957031 34.128906 -15.226562 C 34.128906 -16.847656 32.347656 -17.929688 30.617188 -17.929688 C 29.214844 -17.929688 27.863281 -17.28125 27.378906 -15.660156 Z M 27.378906 -15.660156 "/></g></g></g><g fill="#000000" fill-opacity="1"><g transform="translate(212.174816, 139.530201)"><g><path d="M 27.324219 -15.226562 C 24.949219 -8.964844 19.277344 -6.425781 14.6875 -6.425781 C 10.746094 -6.425781 8.261719 -8.316406 8.261719 -10.800781 C 8.261719 -11.285156 8.316406 -11.773438 8.53125 -12.3125 L 8.964844 -13.339844 C 10.53125 -12.367188 12.472656 -11.71875 14.632812 -11.71875 C 19.546875 -11.71875 23.867188 -14.796875 25.324219 -19.65625 C 25.597656 -20.683594 25.757812 -21.707031 25.757812 -22.625 C 25.757812 -27.757812 21.707031 -31.699219 15.605469 -31.699219 C 10.800781 -31.699219 6.101562 -28.890625 4.210938 -23.488281 L 1.027344 -14.257812 C 0.59375 -12.960938 0.324219 -11.664062 0.324219 -10.421875 C 0.324219 -3.996094 6.371094 0 14.257812 0 C 21.761719 0 30.292969 -3.671875 33.859375 -13.984375 C 34.019531 -14.417969 34.074219 -14.796875 34.074219 -15.121094 C 34.074219 -16.792969 32.5625 -17.710938 30.941406 -17.710938 C 29.429688 -17.710938 27.808594 -16.902344 27.324219 -15.226562 Z M 15.445312 -25.324219 C 16.957031 -25.324219 17.929688 -24.085938 17.929688 -22.519531 C 17.929688 -22.085938 17.875 -21.652344 17.710938 -21.222656 C 17.171875 -19.441406 15.550781 -18.792969 13.933594 -18.792969 C 12.90625 -18.792969 11.878906 -19.007812 11.125 -19.441406 L 12.257812 -22.679688 C 12.851562 -24.355469 14.203125 -25.324219 15.445312 -25.324219 Z M 15.445312 -25.324219 "/></g></g></g><g fill="#000000" fill-opacity="1"><g transform="translate(237.770819, 139.530201)"><g><path d="M 7.398438 -8.800781 L 18.738281 -41.632812 C 18.953125 -42.28125 19.0625 -42.929688 19.0625 -43.46875 C 19.0625 -45.523438 17.117188 -46.871094 15.496094 -46.871094 C 13.445312 -46.871094 12.097656 -45.738281 11.230469 -43.308594 L 0 -11.230469 C -0.433594 -9.988281 -0.648438 -8.855469 -0.648438 -7.722656 C -0.648438 -2.753906 3.457031 0 8.207031 0 C 13.339844 0 19.765625 -3.1875 23.542969 -14.417969 C 23.652344 -14.796875 23.707031 -15.175781 23.707031 -15.496094 C 23.707031 -17.226562 22.195312 -18.46875 20.519531 -18.46875 C 19.171875 -18.46875 17.710938 -17.65625 16.957031 -15.660156 C 14.527344 -9.179688 11.394531 -6.425781 8.855469 -6.425781 C 7.777344 -6.425781 7.183594 -7.074219 7.183594 -7.882812 C 7.183594 -8.101562 7.289062 -8.476562 7.398438 -8.800781 Z M 7.398438 -8.800781 "/></g></g></g><g fill="#000000" fill-opacity="1"><g transform="translate(252.836828, 139.530201)"><g><path d="M 22.84375 -11.285156 C 22.84375 -11.230469 22.84375 -12.097656 22.625 -13.121094 C 23.003906 -13.390625 23.382812 -13.824219 23.707031 -14.308594 C 24.625 -15.660156 26.242188 -20.359375 26.242188 -22.519531 C 26.242188 -28.027344 21.707031 -31.699219 15.875 -31.699219 C 10.800781 -31.699219 5.992188 -28.890625 4.265625 -24.085938 L 0.324219 -12.960938 C -0.160156 -11.609375 -0.378906 -10.261719 -0.378906 -9.070312 C -0.378906 -3.402344 4.480469 0 9.988281 0 C 14.203125 0 18.035156 -1.351562 20.304688 -5.238281 C 21.277344 -4.96875 22.410156 -4.804688 23.542969 -4.804688 C 29.914062 -4.804688 34.9375 -9.34375 36.773438 -15.011719 C 36.9375 -15.605469 37.042969 -16.144531 37.042969 -16.632812 C 37.042969 -18.628906 35.585938 -19.765625 34.019531 -19.765625 C 32.5625 -19.765625 31.050781 -18.898438 30.457031 -16.902344 C 29.269531 -13.554688 26.785156 -11.230469 23.597656 -11.230469 C 23.382812 -11.230469 23.058594 -11.230469 22.84375 -11.285156 Z M 17.820312 -19.601562 C 17.65625 -19.117188 17.496094 -18.683594 17.441406 -18.253906 C 14.472656 -18.574219 11.824219 -16.144531 11.824219 -12.90625 C 11.878906 -11.070312 12.796875 -10.097656 13.824219 -9.234375 C 13.121094 -7.34375 11.554688 -6.425781 9.882812 -6.425781 C 7.777344 -6.425781 7.234375 -7.722656 7.234375 -9.019531 C 7.234375 -10.042969 7.507812 -11.015625 7.722656 -11.554688 L 11.554688 -22.519531 C 12.203125 -24.300781 14.09375 -25.324219 15.769531 -25.324219 C 17.441406 -25.324219 18.523438 -24.191406 18.523438 -22.949219 C 18.523438 -21.976562 18.199219 -20.734375 17.820312 -19.601562 Z M 17.820312 -19.601562 "/></g></g></g><g fill="#000000" fill-opacity="1"><g transform="translate(281.024838, 139.530201)"><g><path d="M 33.859375 -18.253906 C 32.347656 -18.253906 30.671875 -17.335938 30.023438 -15.28125 C 27.917969 -8.640625 24.515625 -6.425781 22.085938 -6.425781 C 21.167969 -6.425781 20.628906 -6.910156 20.628906 -7.777344 C 20.628906 -8.207031 20.734375 -8.746094 20.898438 -9.34375 L 26.945312 -26.839844 C 27.160156 -27.484375 27.269531 -28.078125 27.269531 -28.621094 C 27.269531 -30.996094 25.324219 -32.238281 23.328125 -32.238281 C 21.816406 -32.238281 20.25 -31.535156 19.386719 -30.1875 C 18.253906 -30.886719 16.144531 -31.699219 13.390625 -31.699219 C 9.828125 -31.699219 5.941406 -29.753906 4.480469 -25.597656 L -0.59375 -11.070312 C -0.917969 -10.097656 -1.132812 -9.125 -1.132812 -8.152344 C -1.132812 -3.671875 2.484375 0 7.234375 0 C 9.773438 0 12.367188 -1.132812 14.363281 -2.914062 C 16.09375 -0.433594 19.925781 0 21.546875 0 C 26.027344 0 32.023438 -2.269531 35.476562 -11.015625 C 36.234375 -13.121094 36.828125 -14.472656 36.828125 -15.445312 C 36.828125 -17.28125 35.425781 -18.253906 33.859375 -18.253906 Z M 16.039062 -18.792969 L 13.445312 -10.746094 C 12.3125 -7.234375 10.261719 -6.425781 9.125 -6.425781 C 7.9375 -6.425781 7.34375 -7.183594 7.34375 -8.425781 C 7.34375 -9.125 7.507812 -9.773438 7.667969 -10.261719 L 11.125 -21.113281 C 12.148438 -24.40625 13.660156 -24.839844 14.527344 -24.839844 C 15.550781 -24.839844 16.6875 -23.8125 16.6875 -21.976562 C 16.6875 -21.167969 16.46875 -20.140625 16.039062 -18.792969 Z M 16.039062 -18.792969 "/></g></g></g><g fill="#000000" fill-opacity="1"><g transform="translate(309.37485, 139.530201)"><g><path d="M 34.34375 -18.144531 C 32.886719 -18.144531 31.375 -17.386719 30.886719 -15.660156 C 28.457031 -9.179688 25.542969 -6.425781 23.113281 -6.425781 C 22.03125 -6.425781 21.4375 -7.183594 21.4375 -8.046875 C 21.4375 -8.371094 21.492188 -8.695312 21.707031 -9.34375 L 32.722656 -41.148438 C 32.941406 -41.796875 33.210938 -42.714844 33.210938 -43.308594 C 33.210938 -45.628906 31.320312 -46.871094 29.429688 -46.871094 C 27.757812 -46.871094 26.191406 -45.628906 25.21875 -42.820312 L 20.304688 -28.890625 C 18.683594 -30.671875 16.308594 -31.699219 13.769531 -31.699219 C 10.261719 -31.699219 6.480469 -29.753906 5.023438 -25.648438 L -0.109375 -11.070312 C -0.484375 -10.042969 -0.648438 -8.964844 -0.648438 -7.992188 C -0.648438 -3.238281 3.1875 0 7.828125 0 C 10.367188 0 13.175781 -0.863281 15.335938 -2.96875 C 17.011719 -1.132812 19.601562 0 22.300781 0 C 27.648438 0 33.804688 -3.835938 37.421875 -14.417969 C 37.53125 -14.796875 37.636719 -15.175781 37.636719 -15.496094 C 37.636719 -17.171875 36.019531 -18.144531 34.34375 -18.144531 Z M 9.019531 -8.316406 C 7.992188 -8.585938 7.722656 -9.394531 7.722656 -10.261719 C 7.722656 -10.960938 7.882812 -11.609375 8.046875 -12.097656 L 11.125 -21.113281 C 12.203125 -24.300781 13.660156 -24.839844 14.527344 -24.839844 C 15.550781 -24.839844 16.6875 -23.8125 16.6875 -21.976562 C 16.6875 -21.167969 16.523438 -20.140625 16.039062 -18.792969 L 13.824219 -12.582031 C 12.203125 -8.585938 10.042969 -8.101562 9.019531 -8.316406 Z M 9.019531 -8.316406 "/></g></g></g></svg>